# xmcd
#
# Track frame offsets:
#	150
#	10355
#	20916
#	33727
#	43619
#	53462
#	63138
#	75045
#	86767
#	94670
#	104158
#	113503
#	124721
#	132483
#	142379
#	154345
#	174142
#	184694
#	198020
#	211435
#
# Disc length: 2942 seconds
# Revision: 0
# Processed by: cddbd v1.5.2PL0 Copyright (c) Steve Scherf et al.
# Submitted via: dBpowerAMP V12.0
#
DISCID=0e0b7c14
DTITLE=Various Artist - Still Alive And Rockin'
DYEAR=1955
DGENRE=Country
TTITLE0=Buddy Holly and The Crickets - That'll Be The Day
TTITLE1=Bill Haley and Comets - Rock
TTITLE2=Perry Como - Love Makes The World Go Round
TTITLE3=Bobby Darin - Queen Of The Hop
TTITLE4=Elvis Presley - Heartbreaker Hotel
TTITLE5=Gene Vincent - Lotta Lovin'
TTITLE6=Johnnie Ray - Just Walking In The Rain
TTITLE7=Tennessee Ernie Ford - Sixteen Tons
TTITLE8=Ruth Brown - This Little Girl's Gone Rockin'
TTITLE9=Billy Vaughn - Sail Along Silv'ry Moon
TTITLE10=Eddie Cochran - Somethin' Else
TTITLE11=Don Gibson - Oh Lonesome Me
TTITLE12=Clyde McPhatter - Come What May
TTITLE13=Buddy Knox - Party Doll
TTITLE14=Guy Mitchell - Heartaches By The Number
TTITLE15=Marty Robbins - El Paso
TTITLE16=Johnny and The Hurricanes - Reveille Rock
TTITLE17=Bill Haley and Comets - Skinny Minnie
TTITLE18=Louis Prima - Bona Sera
TTITLE19=Elvis Presley - Don't Be Cruel
EXTD=
EXTT0=
EXTT1=
EXTT2=
EXTT3=
EXTT4=
EXTT5=
EXTT6=
EXTT7=
EXTT8=
EXTT9=
EXTT10=
EXTT11=
EXTT12=
EXTT13=
EXTT14=
EXTT15=
EXTT16=
EXTT17=
EXTT18=
EXTT19=
PLAYORDER=
